<?xml version="1.0" encoding="UTF-8" standalone="no"?>
<svg
   xmlns:dc="http://purl.org/dc/elements/1.1/"
   xmlns:cc="http://creativecommons.org/ns#"
   xmlns:rdf="http://www.w3.org/1999/02/22-rdf-syntax-ns#"
   xmlns:svg="http://www.w3.org/2000/svg"
   xmlns="http://www.w3.org/2000/svg"
   xmlns:sodipodi="http://sodipodi.sourceforge.net/DTD/sodipodi-0.dtd"
   xmlns:inkscape="http://www.inkscape.org/namespaces/inkscape"
   width="499.99999999999994"
   height="499.99999999999994"
   clip-rule="evenodd"
   version="1.1"
   id="svg3719"
   sodipodi:docname="edit.svg"
   inkscape:version="0.92.1 r15371">
  <metadata
     id="metadata3725">
    <rdf:RDF>
      <cc:Work
         rdf:about="">
        <dc:format>image/svg+xml</dc:format>
        <dc:type
           rdf:resource="http://purl.org/dc/dcmitype/StillImage" />
      </cc:Work>
    </rdf:RDF>
  </metadata>
  <defs
     id="defs3723" />
  <sodipodi:namedview
     pagecolor="#ffffff"
     bordercolor="#666666"
     borderopacity="1"
     objecttolerance="10"
     gridtolerance="10"
     guidetolerance="10"
     inkscape:pageopacity="0"
     inkscape:pageshadow="2"
     inkscape:window-width="1920"
     inkscape:window-height="1018"
     id="namedview3721"
     showgrid="false"
     inkscape:zoom="1.3350176"
     inkscape:cx="355.83957"
     inkscape:cy="298.75021"
     inkscape:window-x="-8"
     inkscape:window-y="-8"
     inkscape:window-maximized="1"
     inkscape:current-layer="svg3719" />
  <g
     id="g3706">
    <title
       id="title3703">background</title>
    <rect
       fill="none"
       id="canvas_background"
       height="402"
       width="582"
       y="-1"
       x="-1" />
  </g>
  <g
     id="g3717"
     transform="matrix(1.425559,0,0,1.425559,-106.28622,-106.49327)">
    <title
       id="title3708">Layer 1</title>
    <path
       id="svg_1"
       d="m 349,88 63,63 c 6,6 6,16 0,22 L 211,374 83,417 126,289 327,88 c 6,-6 16,-6 22,0 z"
       class="fil0 str0"
       inkscape:connector-curvature="0"
       style="fill:#434242;stroke:#434242;stroke-width:15;stroke-linejoin:round" />
    <rect
       id="svg_2"
       width="39.999001"
       transform="matrix(-2.121,-2.121,0.064,-0.064,373.322,211.53)"
       height="219.99899"
       class="fil1"
       x="0"
       y="0"
       style="fill:#979798" />
    <polygon
       id="svg_3"
       points="211,374 83,417 126,289 "
       class="fil2"
       style="fill:#cdcdce" />
    <rect
       id="svg_4"
       width="39.997002"
       transform="matrix(0.707,0.707,-0.707,0.707,345.039,183.246)"
       height="229.998"
       class="fil3"
       x="0"
       y="0"
       style="fill:#ff6a00" />
    <rect
       id="svg_5"
       width="39.999001"
       transform="matrix(0.707,0.707,-0.707,0.707,316.755,154.959)"
       height="230.00101"
       class="fil4"
       x="0"
       y="0"
       style="fill:#ff7f00" />
    <rect
       id="svg_6"
       width="40.000999"
       transform="matrix(0.707,0.707,-0.707,0.707,288.47,126.675)"
       height="230.00101"
       class="fil5"
       x="0"
       y="0"
       style="fill:#ff8e00" />
    <path
       id="svg_7"
       d="m 83,417 67,-23 c -4,-10 -9,-19 -17,-27 -8,-8 -17,-13 -27,-17 z"
       class="fil0 str1"
       inkscape:connector-curvature="0"
       style="fill:#434242;stroke:#434242;stroke-width:5" />
  </g>
</svg>
