<?xml version="1.0" ?><svg enable-background="new 0 0 64 64" height="64px" id="Layer_1" version="1.1" viewBox="0 0 64 64" width="64px" xml:space="preserve" xmlns="http://www.w3.org/2000/svg" xmlns:xlink="http://www.w3.org/1999/xlink"><circle cx="32" cy="32" fill="#77B3D4" r="32"/><g opacity="0.2"><path d="M32,56c-12.131,0-22-9.869-22-22c0-2.563,0.438-5.076,1.3-7.466c0.375-1.039,1.522-1.579,2.56-1.203   c1.039,0.375,1.578,1.521,1.203,2.56C14.357,29.846,14,31.9,14,34c0,9.925,8.075,18,18,18s18-8.075,18-18   c0-8.04-5.399-15.167-13.13-17.334c-1.064-0.298-1.684-1.402-1.386-2.465c0.298-1.064,1.404-1.688,2.465-1.386   C47.399,15.463,54,24.175,54,34C54,46.131,44.131,56,32,56z" fill="#231F20"/></g><circle cx="28" cy="15" fill="#231F20" opacity="0.2" r="4"/><path d="M34.828,31.172C31.995,28.338,16.19,16.209,16.19,16.209c-0.542-0.34-1.243-0.26-1.692,0.194  c-0.452,0.452-0.531,1.161-0.194,1.692c0,0,12.972,16.837,14.868,18.733c1.562,1.562,4.095,1.562,5.657,0  C36.39,35.266,36.39,32.734,34.828,31.172z" fill="#231F20" opacity="0.2"/><g><path d="M32,54c-12.131,0-22-9.869-22-22c0-2.563,0.438-5.076,1.3-7.466c0.375-1.039,1.522-1.579,2.56-1.203   c1.039,0.375,1.578,1.521,1.203,2.56C14.357,27.846,14,29.9,14,32c0,9.925,8.075,18,18,18s18-8.075,18-18   c0-8.04-5.399-15.167-13.13-17.334c-1.064-0.298-1.684-1.402-1.386-2.465c0.298-1.064,1.404-1.688,2.465-1.386   C47.399,13.463,54,22.175,54,32C54,44.131,44.131,54,32,54z" fill="#4F5D73"/></g><circle cx="28" cy="13" fill="#4F5D73" r="4"/><path d="M34.828,29.172C31.995,26.338,16.19,14.209,16.19,14.209c-0.542-0.34-1.243-0.26-1.692,0.194  c-0.452,0.452-0.531,1.161-0.194,1.692c0,0,12.972,16.837,14.868,18.733c1.562,1.562,4.095,1.562,5.657,0  C36.39,33.266,36.39,30.734,34.828,29.172z" fill="#4F5D73"/></svg>